<svg width="17" height="17" viewBox="0 0 17 17" fill="none" xmlns="http://www.w3.org/2000/svg">
<path d="M6.92612 1.79742C7.45422 0.172089 9.75363 0.17209 10.2817 1.79742L10.9804 3.94765C11.2166 4.67452 11.8939 5.16664 12.6582 5.16664H14.9191C16.628 5.16664 17.3386 7.35351 15.956 8.35802L14.1269 9.68693C13.5086 10.1362 13.2499 10.9324 13.4861 11.6593L14.1847 13.8095C14.7128 15.4349 12.8525 16.7864 11.47 15.7819L9.64086 14.453C9.02255 14.0038 8.1853 14.0038 7.56698 14.453L5.73789 15.7819C4.3553 16.7864 2.49504 15.4349 3.02314 13.8095L3.7218 11.6593C3.95797 10.9324 3.69924 10.1362 3.08093 9.68693L1.25184 8.35802C-0.13075 7.35351 0.579805 5.16664 2.28878 5.16664H4.54966C5.31394 5.16664 5.99129 4.67452 6.22747 3.94765L6.92612 1.79742Z" fill="#FF8A00"/>
</svg>
