<svg width="266" height="162" viewBox="0 0 266 162" fill="none" xmlns="http://www.w3.org/2000/svg">
<path d="M111.514 54.8646C92.6086 57.4169 69.7634 90.3629 72.2626 108.875C73.3882 117.213 80.4433 121.332 91.1399 119.888C102.767 118.319 109.636 111.29 118.962 110.031C128.368 108.762 136.876 113.714 148.401 112.158C159.098 110.714 164.808 104.871 163.682 96.5335C161.183 78.0211 130.419 52.3124 111.514 54.8646ZM76.044 56.5857C72.4505 48.642 64.0989 44.3109 57.3908 46.9095C50.6826 49.5082 48.1589 58.0539 51.7524 65.9975C55.3458 73.9412 63.6974 78.2723 70.4056 75.6737C77.1138 73.075 79.6375 64.5293 76.044 56.5857ZM95.5433 48.8984C102.647 45.9593 104.984 35.4758 100.765 25.4833C96.5456 15.4907 87.3672 9.7752 80.2638 12.7143C73.1603 15.6533 70.8231 26.1369 75.0423 36.1294C79.2614 46.1219 88.4426 51.8395 95.5433 48.8984ZM161.588 32.8451C154.431 32.1183 147.529 38.5087 146.168 47.1212C144.81 55.7333 149.509 63.3039 156.667 64.0307C163.824 64.7575 170.725 58.3672 172.086 49.7547C173.445 41.1425 168.745 33.572 161.588 32.8451ZM125.331 44.877C132.959 45.8273 140.294 37.8825 141.712 27.1289C143.13 16.3753 138.097 6.88917 130.468 5.93655C122.84 4.98392 115.506 12.9311 114.087 23.6847C112.669 34.4383 117.702 43.9268 125.331 44.877Z" fill="black"/>
<g filter="url(#filter0_d_312_33)">
<path d="M158.517 66.8901L242.08 68.2914L193.097 142.975L158.517 66.8901Z" fill="#3FA72F"/>
</g>
<g filter="url(#filter1_d_312_33)">
<ellipse cx="43" cy="91.5002" rx="38" ry="34.5" fill="#FFC961"/>
<ellipse cx="43" cy="91.5002" rx="38" ry="34.5" fill="#FFC961"/>
<ellipse cx="43" cy="91.5002" rx="38" ry="34.5" fill="#FFC961"/>
<ellipse cx="43" cy="91.5002" rx="38" ry="34.5" fill="#FF8A00"/>
</g>
<g filter="url(#filter2_d_312_33)">
<path d="M31.1094 83.9846C31.1406 83.818 31.224 83.6982 31.3594 83.6252C31.4948 83.5419 31.6354 83.5107 31.7812 83.5315C31.9271 83.5419 32.0625 83.5992 32.1875 83.7034C32.3125 83.8075 32.3802 83.9534 32.3906 84.1409C32.5781 86.9117 32.6667 89.6877 32.6562 92.469C32.6562 95.2398 32.6562 98.0107 32.6562 100.781C32.6562 100.99 32.5885 101.146 32.4531 101.25C32.3177 101.365 32.1667 101.422 32 101.422C31.8438 101.422 31.6979 101.365 31.5625 101.25C31.4271 101.146 31.3594 100.99 31.3594 100.781C31.3698 98.3336 31.375 95.8961 31.375 93.469C31.3854 91.0419 31.3333 88.6044 31.2188 86.1565C30.0833 87.8544 28.9271 89.5211 27.75 91.1565C26.5729 92.7815 25.375 94.4117 24.1562 96.0471C24.0417 96.2034 23.8802 96.3075 23.6719 96.3596C23.474 96.4013 23.2969 96.3388 23.1406 96.1721C22.7969 95.8075 22.4948 95.4065 22.2344 94.969C21.974 94.5315 21.7344 94.0836 21.5156 93.6252C21.2969 93.1565 21.0885 92.6825 20.8906 92.2034C20.6927 91.7242 20.4792 91.2659 20.25 90.8284C19.9792 90.2867 19.7083 89.745 19.4375 89.2034C19.1771 88.6617 18.9219 88.1096 18.6719 87.5471C18.7552 89.7659 18.7917 91.9742 18.7812 94.1721C18.7708 96.3596 18.7656 98.5627 18.7656 100.781C18.7656 100.99 18.6979 101.146 18.5625 101.25C18.4271 101.365 18.276 101.422 18.1094 101.422C17.9531 101.422 17.8073 101.365 17.6719 101.25C17.5365 101.146 17.4688 100.99 17.4688 100.781C17.4688 98.0107 17.4688 95.2398 17.4688 92.469C17.4688 89.6877 17.3802 86.9117 17.2031 84.1409C17.1927 84.0159 17.2135 83.9117 17.2656 83.8284C17.3177 83.7346 17.3854 83.6669 17.4688 83.6252C17.5521 83.5732 17.6458 83.5419 17.75 83.5315C17.8542 83.5211 17.9531 83.5315 18.0469 83.5627C18.1615 83.5732 18.2708 83.6148 18.375 83.6877C18.4896 83.7502 18.5729 83.8544 18.625 84.0002C18.9896 85.0732 19.4062 86.12 19.875 87.1409C20.3542 88.1513 20.8542 89.1617 21.375 90.1721C21.5521 90.5263 21.724 90.9013 21.8906 91.2971C22.0573 91.6825 22.224 92.0732 22.3906 92.469C22.5677 92.8544 22.75 93.2398 22.9375 93.6252C23.125 94.0002 23.3385 94.3492 23.5781 94.6721C24.8802 92.9013 26.1615 91.1409 27.4219 89.3909C28.6927 87.6305 29.9219 85.8284 31.1094 83.9846ZM51.6769 92.6565C51.6248 93.219 51.479 93.7607 51.2394 94.2815C50.9998 94.8023 50.6873 95.2607 50.3019 95.6565C49.9165 96.0523 49.4633 96.3648 48.9425 96.594C48.4321 96.8232 47.8748 96.9221 47.2706 96.8909C46.6873 96.8596 46.1248 96.7294 45.5831 96.5002C45.0415 96.2711 44.5571 95.9638 44.13 95.5784C43.7133 95.1825 43.3852 94.7242 43.1456 94.2034C42.906 93.6721 42.8019 93.094 42.8331 92.469C42.8644 91.8961 42.9946 91.3388 43.2237 90.7971C43.4529 90.245 43.7602 89.7607 44.1456 89.344C44.5415 88.9273 45.005 88.5992 45.5362 88.3596C46.0675 88.12 46.6456 88.0159 47.2706 88.0471C47.8748 88.0784 48.4321 88.2034 48.9425 88.4221C49.4633 88.6409 49.9165 88.9377 50.3019 89.3127C50.6873 89.6773 50.9998 90.1148 51.2394 90.6252C51.479 91.1252 51.6248 91.6773 51.6769 92.2815C51.6769 92.3023 51.6769 92.3284 51.6769 92.3596C51.6873 92.3909 51.6925 92.4273 51.6925 92.469C51.6925 92.5002 51.6873 92.5315 51.6769 92.5627C51.6769 92.594 51.6769 92.6252 51.6769 92.6565ZM44.13 92.469C44.1612 93.1357 44.3331 93.6982 44.6456 94.1565C44.9685 94.6044 45.354 94.943 45.8019 95.1721C46.2498 95.3909 46.7342 95.5002 47.255 95.5002C47.7862 95.5002 48.2758 95.3857 48.7237 95.1565C49.1717 94.9273 49.5519 94.594 49.8644 94.1565C50.1769 93.7086 50.354 93.1461 50.3956 92.469C50.3644 91.969 50.2498 91.5315 50.0519 91.1565C49.854 90.7711 49.5987 90.4534 49.2862 90.2034C48.9842 89.9534 48.6404 89.7659 48.255 89.6409C47.88 89.5159 47.4946 89.4534 47.0987 89.4534C46.7029 89.4534 46.3227 89.5159 45.9581 89.6409C45.5935 89.7659 45.2706 89.9534 44.9894 90.2034C44.7081 90.4534 44.4842 90.7711 44.3175 91.1565C44.1612 91.5315 44.0987 91.969 44.13 92.469ZM62.135 100.375C62.135 97.3023 62.135 94.2294 62.135 91.1565C62.135 88.0836 62.036 85.0159 61.8381 81.9534C61.8277 81.745 61.885 81.5888 62.01 81.4846C62.135 81.3805 62.2756 81.3284 62.4319 81.3284C62.5985 81.3284 62.7496 81.3805 62.885 81.4846C63.0308 81.5888 63.1142 81.745 63.135 81.9534C63.2496 83.6409 63.3225 85.3232 63.3537 87.0002C63.3954 88.6669 63.4215 90.344 63.4319 92.0315C63.8485 91.8648 64.2496 91.6669 64.635 91.4377C65.0204 91.2086 65.4058 90.9794 65.7912 90.7502C66.1767 90.5211 66.5673 90.3075 66.9631 90.1096C67.359 89.9013 67.7808 89.7346 68.2287 89.6096C69.0204 89.3805 69.8121 89.1825 70.6037 89.0159C71.4058 88.8388 72.2027 88.6461 72.9944 88.4377C73.1923 88.3857 73.359 88.4117 73.4944 88.5159C73.6402 88.62 73.734 88.7502 73.7756 88.9065C73.8173 89.0627 73.8017 89.219 73.7287 89.3752C73.6662 89.5315 73.536 89.6357 73.3381 89.6877C72.8902 89.8023 72.4371 89.9065 71.9787 90.0002C71.5204 90.094 71.0621 90.193 70.6037 90.2971C70.1454 90.4013 69.6871 90.5159 69.2287 90.6409C68.7808 90.7555 68.3433 90.9013 67.9162 91.0784C67.4058 91.2763 66.9267 91.5159 66.4787 91.7971C66.0308 92.068 65.5777 92.3388 65.1194 92.6096C65.911 92.943 66.6662 93.3388 67.385 93.7971C68.1037 94.245 68.8121 94.7138 69.51 95.2034C70.2079 95.693 70.9058 96.1825 71.6037 96.6721C72.3121 97.1617 73.0517 97.6044 73.8225 98.0002C74.01 98.094 74.1142 98.2242 74.135 98.3909C74.1558 98.5471 74.1246 98.6982 74.0412 98.844C73.9683 98.9794 73.8485 99.0836 73.6819 99.1565C73.5256 99.219 73.3537 99.2034 73.1662 99.1096C72.3225 98.6825 71.5152 98.193 70.7444 97.6409C69.9735 97.0888 69.2027 96.5471 68.4319 96.0159C67.661 95.4742 66.8694 94.969 66.0569 94.5002C65.2444 94.0315 64.3746 93.6669 63.4475 93.4065C63.4475 94.5732 63.4423 95.7346 63.4319 96.8909C63.4319 98.0471 63.4267 99.2086 63.4162 100.375C63.4162 100.584 63.3485 100.74 63.2131 100.844C63.0777 100.948 62.9267 101 62.76 101C62.6037 101 62.4579 100.948 62.3225 100.844C62.1975 100.74 62.135 100.584 62.135 100.375ZM88.765 86.0315C89.1087 86.1148 89.515 86.219 89.9837 86.344C90.4629 86.469 90.9265 86.6357 91.3744 86.844C91.8223 87.0419 92.2233 87.2867 92.5775 87.5784C92.9317 87.8596 93.166 88.2086 93.2806 88.6252C93.3952 89.0732 93.3692 89.469 93.2025 89.8127C93.0462 90.1461 92.791 90.4377 92.4369 90.6877C92.0931 90.9377 91.6712 91.1513 91.1712 91.3284C90.6712 91.5055 90.1452 91.6513 89.5931 91.7659C89.0515 91.8805 88.5046 91.9742 87.9525 92.0471C87.4004 92.1096 86.89 92.1565 86.4212 92.1877C86.7233 93.5211 87.0306 94.844 87.3431 96.1565C87.6556 97.4586 88.0046 98.7607 88.39 100.063C88.4525 100.271 88.4317 100.443 88.3275 100.578C88.2233 100.714 88.0931 100.802 87.9369 100.844C87.7806 100.886 87.6244 100.875 87.4681 100.813C87.3119 100.75 87.2025 100.62 87.14 100.422C86.7442 99.0575 86.3796 97.6982 86.0462 96.344C85.7233 94.9898 85.4108 93.6252 85.1087 92.2502H84.9525C84.7546 92.2502 84.6035 92.193 84.4994 92.0784C84.3952 91.9638 84.3379 91.8336 84.3275 91.6877C84.3171 91.5315 84.3535 91.3857 84.4369 91.2502C84.5202 91.1044 84.6504 91.0107 84.8275 90.969C84.6504 90.2086 84.4733 89.4534 84.2962 88.7034C84.1296 87.9534 83.9525 87.2034 83.765 86.4534C83.5671 86.4325 83.3692 86.4117 83.1712 86.3909C82.9733 86.3596 82.7806 86.3336 82.5931 86.3127C82.3848 86.2919 82.2285 86.2086 82.1244 86.0627C82.0202 85.9169 81.9681 85.7607 81.9681 85.594C81.9681 85.4273 82.0202 85.2867 82.1244 85.1721C82.2285 85.0471 82.3848 84.995 82.5931 85.0159C82.739 85.0367 82.8796 85.0575 83.015 85.0784C83.1504 85.0888 83.2858 85.1044 83.4212 85.1252C83.4004 85.0211 83.3796 84.9377 83.3587 84.8752C83.3067 84.6773 83.3327 84.5107 83.4369 84.3752C83.541 84.2294 83.6712 84.1357 83.8275 84.094C83.9837 84.0523 84.14 84.0627 84.2962 84.1252C84.4525 84.1877 84.5567 84.318 84.6087 84.5159C84.6504 84.6513 84.6869 84.7815 84.7181 84.9065C84.7494 85.0315 84.7806 85.1617 84.8119 85.2971C85.4785 85.3805 86.14 85.4794 86.7962 85.594C87.4525 85.7086 88.1087 85.8544 88.765 86.0315ZM89.0462 90.4377C89.2129 90.4065 89.4317 90.3596 89.7025 90.2971C89.9837 90.2242 90.265 90.1409 90.5462 90.0471C90.8379 89.943 91.1035 89.8284 91.3431 89.7034C91.5931 89.5784 91.7702 89.443 91.8744 89.2971C91.9785 89.1513 91.9837 88.9898 91.89 88.8127C91.8067 88.6357 91.5775 88.4482 91.2025 88.2502C90.2754 87.7711 89.2962 87.4169 88.265 87.1877C87.2442 86.9482 86.2025 86.7555 85.14 86.6096C85.3171 87.3284 85.4837 88.0419 85.64 88.7502C85.8067 89.4586 85.9681 90.1721 86.1244 90.8909C87.0931 90.818 88.0671 90.6669 89.0462 90.4377ZM123.301 87.0784C123.53 87.943 123.744 88.8127 123.942 89.6877C124.14 90.5627 124.332 91.4377 124.52 92.3127C124.718 93.1877 124.921 94.0627 125.129 94.9377C125.338 95.8023 125.572 96.6617 125.832 97.5159C125.895 97.7138 125.874 97.8805 125.77 98.0159C125.676 98.1513 125.551 98.2398 125.395 98.2815C125.239 98.3232 125.077 98.3127 124.911 98.2502C124.754 98.1877 124.645 98.0575 124.582 97.8596C124.322 97.0055 124.088 96.1461 123.879 95.2815C123.671 94.4065 123.468 93.5315 123.27 92.6565C123.082 91.7815 122.89 90.9065 122.692 90.0315C122.494 89.1565 122.28 88.2867 122.051 87.4221C121.999 87.2242 122.02 87.0575 122.114 86.9221C122.218 86.7763 122.348 86.6825 122.504 86.6409C122.661 86.5992 122.817 86.6148 122.973 86.6877C123.14 86.7502 123.249 86.8805 123.301 87.0784ZM107.176 92.094C107.52 92.1877 107.926 92.2971 108.395 92.4221C108.874 92.5471 109.338 92.7086 109.786 92.9065C110.234 93.1044 110.635 93.3492 110.989 93.6409C111.343 93.9325 111.577 94.2867 111.692 94.7034C111.838 95.2346 111.775 95.6982 111.504 96.094C111.244 96.4794 110.859 96.8075 110.348 97.0784C109.838 97.3388 109.244 97.5523 108.567 97.719C107.9 97.8752 107.234 98.0002 106.567 98.094C105.9 98.1773 105.28 98.2346 104.707 98.2659C104.135 98.2971 103.687 98.318 103.364 98.3284C103.176 98.3284 103.03 98.2711 102.926 98.1565C102.822 98.0419 102.76 97.9117 102.739 97.7659C102.728 97.62 102.76 97.4794 102.832 97.344C102.916 97.1982 103.041 97.0992 103.207 97.0471C102.999 96.2971 102.801 95.5471 102.614 94.7971C102.437 94.0367 102.265 93.2763 102.098 92.5159C101.911 92.495 101.723 92.4742 101.536 92.4534C101.359 92.4325 101.181 92.4117 101.004 92.3909C100.796 92.37 100.64 92.2867 100.536 92.1409C100.431 91.995 100.379 91.8388 100.379 91.6721C100.379 91.5055 100.431 91.3648 100.536 91.2502C100.64 91.1252 100.796 91.0732 101.004 91.094L101.801 91.1877C101.655 90.5523 101.51 89.9221 101.364 89.2971C101.218 88.6617 101.062 88.0315 100.895 87.4065C100.843 87.2086 100.864 87.0419 100.957 86.9065C101.062 86.7711 101.192 86.6825 101.348 86.6409C101.504 86.5992 101.661 86.6096 101.817 86.6721C101.984 86.7346 102.093 86.8648 102.145 87.0627C102.332 87.7815 102.51 88.5002 102.676 89.219C102.843 89.9273 103.004 90.6409 103.161 91.3596C103.848 91.443 104.525 91.5471 105.192 91.6721C105.859 91.7867 106.52 91.9273 107.176 92.094ZM107.457 96.5159C107.624 96.4846 107.843 96.4325 108.114 96.3596C108.395 96.2867 108.676 96.2034 108.957 96.1096C109.249 96.0159 109.515 95.9065 109.754 95.7815C110.004 95.6565 110.181 95.5211 110.286 95.3752C110.39 95.219 110.395 95.0575 110.301 94.8909C110.218 94.7138 109.989 94.5263 109.614 94.3284C108.676 93.8388 107.681 93.4794 106.629 93.2502C105.588 93.0107 104.53 92.818 103.457 92.6721C103.624 93.3909 103.791 94.1096 103.957 94.8284C104.124 95.5367 104.312 96.2502 104.52 96.969C105.499 96.8752 106.478 96.7242 107.457 96.5159ZM139.916 77.2659C139.707 77.2659 139.546 77.1982 139.431 77.0627C139.327 76.9273 139.275 76.7815 139.275 76.6252C139.275 76.4586 139.327 76.3075 139.431 76.1721C139.546 76.0367 139.707 75.969 139.916 75.969H145.666C145.874 75.969 146.03 76.0367 146.134 76.1721C146.239 76.3075 146.291 76.4586 146.291 76.6252C146.291 76.7815 146.239 76.9273 146.134 77.0627C146.03 77.1982 145.874 77.2659 145.666 77.2659H139.916ZM149.525 87.4377C149.754 88.3023 149.968 89.1721 150.166 90.0471C150.364 90.9221 150.556 91.7971 150.744 92.6721C150.942 93.5471 151.145 94.4221 151.353 95.2971C151.572 96.1617 151.806 97.0211 152.056 97.8752C152.119 98.0732 152.098 98.2398 151.994 98.3752C151.9 98.5107 151.775 98.5992 151.619 98.6409C151.462 98.6825 151.301 98.6721 151.134 98.6096C150.978 98.5471 150.869 98.4169 150.806 98.219C150.577 97.4482 150.364 96.6773 150.166 95.9065C149.978 95.1252 149.796 94.344 149.619 93.5627C149.442 92.7815 149.265 92.0002 149.087 91.219C148.921 90.4377 148.744 89.6565 148.556 88.8752C147.067 90.3648 145.582 91.8492 144.103 93.3284C142.634 94.8075 141.155 96.2919 139.666 97.7815C139.489 97.9586 139.28 98.0159 139.041 97.9534C138.811 97.8805 138.66 97.7294 138.587 97.5002C138.327 96.6461 138.093 95.7867 137.884 94.9221C137.676 94.0471 137.473 93.1721 137.275 92.2971C137.087 91.4221 136.895 90.5471 136.697 89.6721C136.499 88.7971 136.285 87.9273 136.056 87.0627C136.004 86.8648 136.025 86.6982 136.119 86.5627C136.223 86.4169 136.353 86.3232 136.509 86.2815C136.666 86.2398 136.822 86.2555 136.978 86.3284C137.145 86.3909 137.254 86.5211 137.306 86.719C137.515 87.5002 137.707 88.2815 137.884 89.0627C138.061 89.844 138.233 90.6252 138.4 91.4065C138.577 92.1877 138.754 92.969 138.931 93.7502C139.119 94.5315 139.322 95.3075 139.541 96.0784C141.03 94.5888 142.515 93.1044 143.994 91.6252C145.473 90.1357 146.957 88.6461 148.447 87.1565C148.53 87.0732 148.629 87.0211 148.744 87.0002C148.858 86.969 148.968 86.969 149.072 87.0002C149.176 87.0211 149.27 87.0732 149.353 87.1565C149.436 87.2294 149.494 87.3232 149.525 87.4377ZM181.207 84.5159C181.551 85.8075 181.868 87.1044 182.16 88.4065C182.462 89.7086 182.759 91.0107 183.051 92.3127C183.342 93.6148 183.644 94.9117 183.957 96.2034C184.269 97.495 184.613 98.7815 184.988 100.063C185.051 100.271 185.03 100.443 184.926 100.578C184.821 100.714 184.691 100.802 184.535 100.844C184.379 100.886 184.222 100.875 184.066 100.813C183.91 100.75 183.801 100.62 183.738 100.422C183.342 99.068 182.978 97.7138 182.644 96.3596C182.321 95.0055 182.009 93.6461 181.707 92.2815H174.691C174.993 93.594 175.295 94.8961 175.597 96.1877C175.91 97.4794 176.259 98.7711 176.644 100.063C176.707 100.271 176.686 100.443 176.582 100.578C176.488 100.714 176.363 100.802 176.207 100.844C176.051 100.886 175.889 100.875 175.722 100.813C175.566 100.75 175.457 100.62 175.394 100.422C175.019 99.1409 174.676 97.8544 174.363 96.5627C174.051 95.2607 173.749 93.9586 173.457 92.6565C173.165 91.3544 172.874 90.0575 172.582 88.7659C172.29 87.4638 171.972 86.1669 171.629 84.8752C171.577 84.6773 171.597 84.5107 171.691 84.3752C171.795 84.2294 171.926 84.1357 172.082 84.094C172.238 84.0523 172.394 84.0627 172.551 84.1252C172.717 84.1877 172.827 84.318 172.879 84.5159C173.16 85.5888 173.426 86.6669 173.676 87.7502C173.926 88.8232 174.17 89.9013 174.41 90.9846H181.426C181.196 89.9534 180.962 88.9325 180.722 87.9221C180.493 86.9013 180.243 85.8857 179.972 84.8752C179.92 84.6773 179.941 84.5107 180.035 84.3752C180.139 84.2294 180.269 84.1357 180.426 84.094C180.582 84.0523 180.738 84.0627 180.894 84.1252C181.051 84.1877 181.155 84.318 181.207 84.5159ZM200.899 92.6565C200.847 93.219 200.701 93.7607 200.462 94.2815C200.222 94.8023 199.91 95.2607 199.524 95.6565C199.139 96.0523 198.686 96.3648 198.165 96.594C197.655 96.8232 197.097 96.9221 196.493 96.8909C195.91 96.8596 195.347 96.7294 194.806 96.5002C194.264 96.2711 193.78 95.9638 193.352 95.5784C192.936 95.1825 192.608 94.7242 192.368 94.2034C192.129 93.6721 192.024 93.094 192.056 92.469C192.087 91.8961 192.217 91.3388 192.446 90.7971C192.675 90.245 192.983 89.7607 193.368 89.344C193.764 88.9273 194.227 88.5992 194.759 88.3596C195.29 88.12 195.868 88.0159 196.493 88.0471C197.097 88.0784 197.655 88.2034 198.165 88.4221C198.686 88.6409 199.139 88.9377 199.524 89.3127C199.91 89.6773 200.222 90.1148 200.462 90.6252C200.701 91.1252 200.847 91.6773 200.899 92.2815C200.899 92.3023 200.899 92.3284 200.899 92.3596C200.91 92.3909 200.915 92.4273 200.915 92.469C200.915 92.5002 200.91 92.5315 200.899 92.5627C200.899 92.594 200.899 92.6252 200.899 92.6565ZM193.352 92.469C193.384 93.1357 193.556 93.6982 193.868 94.1565C194.191 94.6044 194.576 94.943 195.024 95.1721C195.472 95.3909 195.957 95.5002 196.477 95.5002C197.009 95.5002 197.498 95.3857 197.946 95.1565C198.394 94.9273 198.774 94.594 199.087 94.1565C199.399 93.7086 199.576 93.1461 199.618 92.469C199.587 91.969 199.472 91.5315 199.274 91.1565C199.076 90.7711 198.821 90.4534 198.509 90.2034C198.207 89.9534 197.863 89.7659 197.477 89.6409C197.102 89.5159 196.717 89.4534 196.321 89.4534C195.925 89.4534 195.545 89.5159 195.181 89.6409C194.816 89.7659 194.493 89.9534 194.212 90.2034C193.931 90.4534 193.707 90.7711 193.54 91.1565C193.384 91.5315 193.321 91.969 193.352 92.469ZM210.389 98.4065C209.847 97.9898 209.399 97.4742 209.045 96.8596C208.691 96.2346 208.42 95.5732 208.232 94.8752C208.055 94.1669 207.956 93.4482 207.936 92.719C207.915 91.9794 207.972 91.2867 208.107 90.6409C208.305 89.693 208.67 88.8805 209.201 88.2034C209.743 87.5159 210.384 86.9534 211.123 86.5159C211.873 86.0784 212.696 85.7607 213.592 85.5627C214.498 85.3648 215.41 85.2815 216.326 85.3127C217.243 85.3336 218.139 85.4638 219.014 85.7034C219.889 85.943 220.68 86.2815 221.389 86.719C221.566 86.8336 221.665 86.9742 221.686 87.1409C221.706 87.3075 221.675 87.4638 221.592 87.6096C221.519 87.745 221.404 87.844 221.248 87.9065C221.092 87.969 220.925 87.943 220.748 87.8284C220.123 87.443 219.404 87.1461 218.592 86.9377C217.79 86.7294 216.962 86.6252 216.107 86.6252C215.264 86.6148 214.43 86.7086 213.607 86.9065C212.795 87.1044 212.066 87.4169 211.42 87.844C210.785 88.2711 210.269 88.8232 209.873 89.5002C209.477 90.1669 209.279 90.969 209.279 91.9065C209.279 92.6252 209.337 93.3336 209.451 94.0315C209.566 94.719 209.774 95.3492 210.076 95.9221C210.378 96.4846 210.79 96.9638 211.311 97.3596C211.831 97.745 212.498 97.9898 213.311 98.094C213.884 98.1773 214.456 98.2242 215.029 98.2346C215.613 98.2346 216.191 98.219 216.764 98.1877C217.337 98.1565 217.91 98.1096 218.482 98.0471C219.055 97.9846 219.628 97.9221 220.201 97.8596C220.41 97.8388 220.566 97.8909 220.67 98.0159C220.774 98.1305 220.826 98.2711 220.826 98.4377C220.826 98.6044 220.774 98.7607 220.67 98.9065C220.566 99.0523 220.41 99.1357 220.201 99.1565C219.722 99.2086 219.201 99.2711 218.639 99.344C218.087 99.4169 217.519 99.4794 216.936 99.5315C216.352 99.5836 215.764 99.6148 215.17 99.6252C214.576 99.6357 213.993 99.6044 213.42 99.5315C212.857 99.4586 212.316 99.3336 211.795 99.1565C211.285 98.9794 210.816 98.7294 210.389 98.4065Z" fill="white"/>
</g>
<defs>
<filter id="filter0_d_312_33" x="153.718" y="63.0901" width="93.1625" height="85.6854" filterUnits="userSpaceOnUse" color-interpolation-filters="sRGB">
<feFlood flood-opacity="0" result="BackgroundImageFix"/>
<feColorMatrix in="SourceAlpha" type="matrix" values="0 0 0 0 0 0 0 0 0 0 0 0 0 0 0 0 0 0 127 0" result="hardAlpha"/>
<feOffset dy="1"/>
<feGaussianBlur stdDeviation="2.4"/>
<feComposite in2="hardAlpha" operator="out"/>
<feColorMatrix type="matrix" values="0 0 0 0 0 0 0 0 0 0 0 0 0 0 0 0 0 0 0.25 0"/>
<feBlend mode="normal" in2="BackgroundImageFix" result="effect1_dropShadow_312_33"/>
<feBlend mode="normal" in="SourceGraphic" in2="effect1_dropShadow_312_33" result="shape"/>
</filter>
<filter id="filter1_d_312_33" x="0.2" y="53.2002" width="85.6" height="78.6" filterUnits="userSpaceOnUse" color-interpolation-filters="sRGB">
<feFlood flood-opacity="0" result="BackgroundImageFix"/>
<feColorMatrix in="SourceAlpha" type="matrix" values="0 0 0 0 0 0 0 0 0 0 0 0 0 0 0 0 0 0 127 0" result="hardAlpha"/>
<feOffset dy="1"/>
<feGaussianBlur stdDeviation="2.4"/>
<feComposite in2="hardAlpha" operator="out"/>
<feColorMatrix type="matrix" values="0 0 0 0 0 0 0 0 0 0 0 0 0 0 0 0 0 0 0.25 0"/>
<feBlend mode="normal" in2="BackgroundImageFix" result="effect1_dropShadow_312_33"/>
<feBlend mode="normal" in="SourceGraphic" in2="effect1_dropShadow_312_33" result="shape"/>
</filter>
<filter id="filter2_d_312_33" x="15.5875" y="75.969" width="206.129" height="29.0531" filterUnits="userSpaceOnUse" color-interpolation-filters="sRGB">
<feFlood flood-opacity="0" result="BackgroundImageFix"/>
<feColorMatrix in="SourceAlpha" type="matrix" values="0 0 0 0 0 0 0 0 0 0 0 0 0 0 0 0 0 0 127 0" result="hardAlpha"/>
<feOffset dx="-1" dy="3"/>
<feGaussianBlur stdDeviation="0.3"/>
<feComposite in2="hardAlpha" operator="out"/>
<feColorMatrix type="matrix" values="0 0 0 0 0 0 0 0 0 0 0 0 0 0 0 0 0 0 0.25 0"/>
<feBlend mode="normal" in2="BackgroundImageFix" result="effect1_dropShadow_312_33"/>
<feBlend mode="normal" in="SourceGraphic" in2="effect1_dropShadow_312_33" result="shape"/>
</filter>
</defs>
</svg>
